<svg width="3562" height="2265" viewBox="0 0 3562 2265" fill="none" xmlns="http://www.w3.org/2000/svg">
<path d="M3312.5 2252.41C3312.5 2252.41 3898.97 1492.68 3272.51 1086.16C2646.08 679.629 2832.69 806.256 2679.4 486.364C2526.11 166.477 2099.6 -20.1301 1573.12 226.455C1046.63 473.037 633.442 426.386 546.806 433.049C460.169 439.713 80.3021 459.708 13.6601 806.256C-52.9849 1152.8 146.947 1199.45 126.953 1339.4C106.959 1479.34 -0.330888 1579.32 13.3281 1739.27C26.9871 1899.2 46.9811 2185.77 240.246 2252.41H3312.5Z" fill="#EFECF7"/>
<path d="M3406.41 2264.84H42.0071C42.0071 2264.84 42.0611 2264.77 42.0721 2264.76C239.819 2037.84 638.047 2086.56 907.477 2100.03C1014.91 2105.41 1122.54 2108.44 1230.21 2109.49C1241.49 2109.61 1252.78 2109.71 1264.06 2109.76C1280.6 2109.87 1297.13 2109.92 1313.66 2109.93C1324.62 2109.95 1335.59 2109.95 1346.56 2109.92C1605.54 2109.21 1864.74 2097.97 2122.91 2081.65C2489.87 2058.41 2884.53 2015.2 3226.66 2164.11C3235.72 2168.07 3244.76 2172.15 3253.78 2176.39C3306.04 2200.91 3357.02 2230.13 3406.41 2264.84Z" fill="#7979B2"/>
<path d="M2337.44 457.903H1098.66C1071.68 457.903 1049.8 479.782 1049.8 506.771V1359C1049.8 1385.99 1071.68 1407.87 1098.66 1407.87H1560.81V1542.15H1875.28V1407.87H2337.44C2364.43 1407.87 2386.31 1385.99 2386.31 1359V506.771C2386.31 479.782 2364.43 457.903 2337.44 457.903Z" fill="#FE6E8D"/>
<path d="M2386.31 506.755V1359C2386.31 1385.98 2366.82 1407.86 2342.78 1407.86H2307.56C2331.64 1407.86 2351.1 1385.98 2351.1 1359V506.755C2351.1 479.766 2331.64 457.903 2307.56 457.903H2342.78C2366.82 457.903 2386.31 479.766 2386.31 506.755Z" fill="#EF658A"/>
<path d="M2286.51 576.194V1292.43C2286.51 1317.8 2265.96 1338.36 2240.58 1338.36H1195.54C1170.17 1338.36 1149.61 1317.8 1149.61 1292.43V576.194C1149.61 550.818 1170.17 530.265 1195.54 530.265H2240.58C2265.96 530.265 2286.51 550.818 2286.51 576.194Z" fill="#EFECF7"/>
<path d="M2238.7 587.067V1287.4C2238.7 1297.14 2227.29 1305.1 2213.37 1305.1H1212.28C1198.36 1305.1 1186.96 1297.14 1186.96 1287.4V587.067C1186.96 577.327 1198.36 569.344 1212.28 569.344H2213.37C2227.29 569.344 2238.7 577.327 2238.7 587.067Z" fill="#A8A1E2"/>
<path d="M1891.62 1541.73H1866.98V1407.45H1891.62V1541.73Z" fill="#EF658A"/>
<path d="M1715.76 1044.57C1715.76 1044.59 1715.76 1044.59 1715.76 1044.59C1715.73 1044.57 1715.69 1044.57 1715.65 1044.56C1715.69 1044.57 1715.72 1044.57 1715.76 1044.57Z" fill="#242C37"/>
<path d="M1806.29 654.076C1806.29 654.076 1808.44 700.436 1820.72 714.663C1827.93 723.036 1790.16 733.449 1760.33 733.969C1739.42 734.343 1723.21 722.543 1723.21 722.543C1723.21 722.543 1738.21 670.396 1733.24 659.996C1728.28 649.596 1806.29 654.076 1806.29 654.076Z" fill="#EFB284"/>
<path d="M1879.18 540.969C1877.72 541.009 1876.32 541.263 1874.98 541.663C1875.72 528.116 1875.66 510.596 1872.73 501.103C1858.68 455.703 1816.16 434.903 1771.05 434.543C1726.36 434.183 1683.49 452.663 1668.62 497.183C1665.33 507.049 1666 525.569 1666.4 539.956C1657.21 540.343 1650.02 548.263 1650.3 557.769C1650.6 567.329 1658.34 574.863 1667.62 574.583C1667.96 574.569 1668.28 574.529 1668.61 574.503C1688.96 634.383 1719.64 668.023 1769.7 668.423C1820.74 668.836 1843.96 627.223 1870.85 572.983C1873.57 574.729 1876.78 575.703 1880.22 575.596C1889.5 575.316 1896.78 567.343 1896.5 557.783C1896.21 548.209 1888.46 540.689 1879.18 540.969Z" fill="#F8BD8C"/>
<path d="M1725.13 538.023C1724.45 534.063 1722.62 531.756 1718.6 531.756C1715.62 531.756 1712.48 534.236 1712.25 540.716C1712.21 542.023 1712.36 543.316 1712.6 544.609C1712.82 545.823 1713.24 546.969 1713.78 548.089C1714.85 550.289 1716.7 551.836 1719.2 551.983C1721.36 552.103 1723.12 550.596 1724.06 548.663C1725.13 546.503 1725.45 544.023 1725.46 541.636C1725.46 540.423 1725.33 539.223 1725.13 538.023Z" fill="#3D3C3B"/>
<path d="M1815.29 537.743C1815.49 536.263 1815.89 534.756 1816.6 533.529C1818.41 530.409 1823.42 529.583 1825.97 532.929C1827.61 535.103 1828.14 537.729 1828.29 540.449C1828.36 541.876 1828.24 543.289 1828.02 544.703C1827.82 546.023 1827.44 547.289 1826.92 548.529C1825.9 550.903 1824.16 552.663 1821.56 552.876C1819.34 553.049 1817.54 551.356 1816.58 549.343C1815.46 547.009 1815.09 544.303 1815.04 541.703C1815 540.383 1815.12 539.063 1815.29 537.743Z" fill="#3D3C3B"/>
<path d="M1836.93 518.29C1833.4 514.89 1827.89 513.143 1823 512.476C1820.3 512.103 1817.56 512.01 1814.82 512.25C1810.69 512.61 1805.21 513.596 1804.88 517.73C1804.82 518.583 1805.09 519.463 1805.6 520.116C1806.85 521.73 1808.24 522.01 1810.56 521.783C1812.78 521.57 1813.62 520.97 1819 521.423C1822.45 521.743 1825.88 522.423 1829.13 523.556C1829.81 523.836 1830.46 524.156 1831.14 524.436C1833.29 525.329 1835.24 525.623 1837 524.116C1837.38 523.796 1837.66 523.423 1837.94 523.01C1838.76 521.876 1838.69 520.036 1836.93 518.29Z" fill="#3D3C3B"/>
<path d="M1774.37 588.889H1765.66C1763.04 588.889 1760.62 587.703 1759.02 585.636C1757.45 583.596 1756.9 580.983 1757.52 578.476C1760.1 567.996 1762 557.636 1763.16 547.663C1763.29 546.529 1764.32 545.716 1765.44 545.849C1766.56 545.983 1767.37 547.009 1767.24 548.156C1766.06 558.289 1764.13 568.836 1761.5 579.476C1761.18 580.743 1761.46 582.049 1762.25 583.076C1763.08 584.129 1764.32 584.743 1765.66 584.743H1774.37C1775.5 584.743 1776.42 585.676 1776.42 586.823C1776.42 587.969 1775.5 588.889 1774.37 588.889Z" fill="#3D3C3B"/>
<path d="M1375.86 1268.51C1375.86 1268.51 1363.33 1297.09 1351.32 1293.51C1339.32 1289.92 1321.5 1290.97 1315.9 1291.6C1308.42 1292.41 1284.1 1286.71 1285.54 1295.8C1286.96 1304.89 1325.26 1307.04 1333.26 1309.03C1340.34 1310.77 1318.72 1326.85 1312.2 1335.99C1303.76 1344.8 1262.32 1388.43 1262.16 1394.21C1261.98 1400.65 1265.3 1403.28 1270.33 1398.49C1274.42 1394.59 1305.88 1363.79 1317.37 1352.51C1317.64 1352.83 1317.9 1353.16 1318.17 1353.49C1307 1370.23 1272.14 1422.65 1271.01 1427.01C1270.21 1430.05 1276.34 1435.51 1279.29 1433.19C1281.72 1431.28 1318.29 1383.51 1331.1 1366.72C1331.24 1366.83 1331.36 1366.93 1331.48 1367.03C1320.29 1383.93 1289.73 1430.48 1289.93 1434.33C1290.14 1438.47 1297.01 1442.17 1300.78 1437.32C1303.85 1433.39 1334.97 1392.33 1346.6 1376.97C1346.89 1377.11 1347.18 1377.24 1347.48 1377.36C1339.68 1391.25 1321.56 1424.2 1323.66 1427.35C1325.29 1429.79 1330.36 1434.72 1337.64 1421.01C1344.92 1407.33 1365.69 1376.95 1365.73 1376.88C1366.04 1376.64 1366.33 1376.4 1366.62 1376.13C1384.58 1359.89 1392.01 1330.69 1395.8 1328.47C1399.57 1326.24 1416.06 1302.97 1416.06 1302.97L1375.86 1268.51Z" fill="#EEA886"/>
<path d="M2018.7 1049.41C2016.06 1055.99 1984.86 1069.71 1949.59 1083.39C1951.14 1014.66 1955.03 955.306 1956.65 954.506C1960.26 952.696 2025.01 1033.81 2018.7 1049.41ZM2114.37 1073.52C2111.39 1063.85 2107.04 1054.74 2103.86 1045.16C2099.44 1031.8 2094.81 1018.48 2090.1 1005.21C2084.61 989.736 2078.98 974.296 2073.22 958.916C2067.1 942.576 2060.84 926.316 2054.4 910.106C2048.09 894.216 2041.6 878.366 2034.86 862.656C2028.78 848.466 2022.48 834.336 2015.81 820.396C2010.39 809.136 2004.75 797.958 1998.42 787.185C1994.24 780.076 1989.79 772.676 1983.93 766.846C1982.4 765.334 1980.73 763.851 1978.77 762.978C1929.39 740.545 1816.85 709.869 1816.84 709.869C1809.54 707.892 1797.82 714.667 1790.71 716.382C1769.47 721.515 1760.4 749.676 1731.53 711.454C1731.53 711.454 1573.1 746.739 1559.58 791.808C1546.06 836.896 1519.8 942.746 1483.27 1057.89C1461.43 1126.76 1350.41 1283.64 1350.41 1283.64C1350.41 1283.64 1365.21 1294.55 1380.52 1305.11C1396.94 1316.46 1413.95 1327.4 1413.95 1324.14C1413.95 1323.04 1418.5 1316.06 1426.03 1305.11C1461.66 1253.47 1563.84 1113.97 1565.34 1093.88C1567.14 1069.54 1612.45 945.076 1612.45 945.076C1612.45 945.076 1633.93 1184.38 1633.93 1221.35C1633.93 1243.74 1633.03 1279.99 1632.34 1305.11H1965.13C1966.79 1299.76 1966.09 1293.78 1962.34 1287.1C1952.9 1270.23 1949.44 1215.31 1948.98 1154.84C1951.62 1154.02 1954.27 1153.2 1956.95 1152.36C1973.85 1147.07 1990.75 1141.67 2007.6 1136.15C2023.76 1130.86 2039.9 1125.43 2055.91 1119.74C2068.83 1115.15 2081.71 1110.41 2094.33 1105.06C2098.36 1103.36 2102.45 1101.75 2106.37 1099.78C2109.02 1098.47 2111.93 1097.29 2114.14 1095.28C2120.27 1089.74 2116.32 1079.87 2114.37 1073.52Z" fill="#383860"/>
<path d="M1660.82 458.929C1660.82 458.929 1665.77 496.063 1711.98 482.276C1758.18 468.476 1772.5 461.049 1796.1 476.969C1819.72 492.876 1877.8 476.663 1875.28 521.369C1872.76 566.089 1879.18 540.969 1879.18 540.969C1879.18 540.969 1901.21 532.756 1888.49 484.649C1875.76 436.529 1805.92 379.369 1748.64 395.276C1691.34 411.196 1663.18 424.983 1660.82 458.929Z" fill="#3D3C3B"/>
<path d="M1655.44 538.503C1655.44 538.503 1645.98 471.583 1664.69 454.516C1683.38 437.449 1690.65 459.436 1683.22 470.276C1675.78 481.116 1666.41 536.116 1667.48 540.089C1667.48 540.089 1664.88 538.903 1656.62 544.476L1655.44 538.503Z" fill="#3D3C3B"/>
<path d="M1749.14 621.289C1753.9 627.449 1764.57 631.116 1771.89 630.689C1780.94 630.183 1790.24 625.129 1795.17 618.063C1794.46 618.023 1793.25 618.049 1791.18 618.289C1790.94 618.316 1790.73 618.343 1790.58 618.356L1785.96 618.796C1774.49 619.889 1762.64 621.036 1750.89 621.249L1750.38 621.263C1750.12 621.263 1749.62 621.263 1749.14 621.289ZM1770.77 634.81C1762.17 634.81 1750.46 630.476 1745.3 622.943C1744.64 621.97 1744.36 621.063 1744.48 620.169C1744.84 617.196 1748.57 617.183 1750.37 617.169H1750.81C1762.4 616.956 1774.18 615.823 1785.57 614.729L1790.72 614.236C1794.29 613.809 1797.9 613.596 1799.28 615.836C1799.78 616.663 1800.12 618.036 1798.85 619.916C1793.32 628.209 1782.57 634.169 1772.12 634.769C1771.68 634.796 1771.22 634.81 1770.77 634.81Z" fill="#3D3C3B"/>
<path d="M1878.45 719.396L1767.84 947.166C1767.84 947.166 1735.62 940.306 1731.64 937.236C1727.65 934.166 1682.17 722.463 1682.17 722.463L1714.7 713.516L1741.7 706.076L1757.96 728.089C1758.09 728.276 1758.21 728.476 1758.28 728.689C1758.3 728.703 1758.3 728.689 1758.3 728.689C1758.93 728.476 1759.61 728.489 1760.21 728.756C1760.33 727.756 1760.77 726.823 1761.54 726.103L1788.17 701.636L1837.61 711.369L1878.45 719.396Z" fill="#EFECF7"/>
<path d="M1757.73 731.609L1742.86 747.103L1719.44 771.476C1717.72 773.276 1714.7 772.049 1714.7 769.569V706.223C1714.7 705.396 1715.08 704.623 1715.73 704.089L1728.81 693.449C1730.04 692.463 1731.82 692.689 1732.76 693.956L1741.7 706.076L1757.96 728.089C1758.09 728.276 1758.21 728.476 1758.28 728.689C1758.3 728.703 1758.3 728.689 1758.3 728.689C1758.69 729.676 1758.48 730.823 1757.73 731.609Z" fill="#2E2E51"/>
<path d="M1837.69 715.916L1800.65 774.543C1799.09 776.983 1795.58 777.143 1793.81 774.836L1773.61 748.223L1761.05 731.676C1760.38 730.81 1760.12 729.756 1760.21 728.756C1760.33 727.756 1760.77 726.823 1761.54 726.103L1788.17 701.636L1804.78 686.369C1806.36 684.903 1808.81 684.903 1810.4 686.369L1836.97 710.623C1837.22 710.85 1837.42 711.103 1837.61 711.369C1838.53 712.703 1838.58 714.49 1837.69 715.916Z" fill="#2E2E51"/>
<path d="M1775.21 746.716L1773.61 748.223L1758.72 762.369C1757.57 763.463 1755.73 763.343 1754.74 762.089L1742.86 747.103L1741.64 745.569C1740.73 744.409 1740.89 742.716 1742.04 741.796L1757.48 729.156C1757.73 728.956 1758 728.796 1758.28 728.689C1758.3 728.703 1758.3 728.689 1758.3 728.689C1758.93 728.476 1759.61 728.489 1760.21 728.756C1760.53 728.876 1760.82 729.063 1761.06 729.289L1775.21 742.783C1776.32 743.849 1776.32 745.649 1775.21 746.716Z" fill="#FE6E8D"/>
<path d="M1757.16 748.956L1781.85 909.436L1739.98 995.996L1718.28 907.146L1757.16 748.956Z" fill="#FE6E8D"/>
<path d="M1684.93 719.969L1738.24 987.226C1738.61 989.116 1736.1 990.146 1735.05 988.546L1654.17 866.386C1653.73 865.726 1653.78 864.846 1654.32 864.246L1678.78 836.486C1679.44 835.746 1679.36 834.606 1678.6 833.986L1634.68 797.303C1634.01 796.743 1633.85 795.769 1634.32 795.023L1681.72 719.383C1682.56 718.036 1684.61 718.409 1684.93 719.969Z" fill="#2E2E51"/>
<path d="M1868.56 710.049L1744.33 986.326C1743.45 988.266 1745.93 989.956 1747.41 988.446L1881.1 852.586C1881.74 851.946 1881.84 850.946 1881.33 850.186L1862.9 823.006C1862.29 822.106 1862.56 820.876 1863.49 820.316L1921.33 785.623C1922.26 785.049 1922.53 783.823 1921.92 782.916L1871.86 709.756C1871.02 708.529 1869.17 708.689 1868.56 710.049Z" fill="#2E2E51"/>
<path d="M2079.22 1173.65L1926.85 1279.8C1913.28 1289.25 1894.62 1285.9 1885.16 1272.34L1719.54 1034.6C1710.09 1021.04 1713.41 1002.36 1727 992.916L1879.35 886.756C1892.92 877.306 1911.6 880.646 1921.05 894.216L2086.67 1131.96C2096.13 1145.53 2092.79 1164.2 2079.22 1173.65Z" fill="#56548C"/>
<path d="M1800.88 1118.49C1800.88 1118.49 1785.48 1118.07 1780.76 1117.39C1776.04 1116.71 1779.16 1126.73 1784.64 1128.63C1790.1 1130.52 1800.88 1118.49 1800.88 1118.49Z" fill="#C98462"/>
<path d="M1791.88 1192.07C1791.88 1192.07 1798.6 1193.69 1801.89 1192.97C1801.89 1192.97 1807.77 1191.2 1812.02 1190.2C1813.38 1189.88 1814.56 1189.64 1815.34 1189.56C1818.62 1189.24 1825.88 1189.49 1833.52 1186.51C1841.12 1183.53 1866.98 1170.27 1866.98 1170.27L1859.6 1146.24L1854.02 1127.19C1854.02 1127.19 1810.32 1115.57 1802.9 1117.52C1802.18 1117.72 1801.46 1117.93 1800.81 1118.2C1794.7 1120.45 1791.09 1124.72 1788.01 1126.28C1786.89 1126.85 1776.06 1133.36 1775.5 1137.08C1774.7 1142.25 1776.26 1146.16 1778.93 1148.57C1778.93 1148.57 1777.82 1158.76 1781.62 1164.55C1781.62 1164.55 1780.29 1173.92 1787.05 1179.77C1787.05 1179.77 1786.78 1189.44 1791.88 1192.07Z" fill="#EEA886"/>
<path d="M1844.82 1121.04C1844.82 1121.04 1842.62 1151.73 1865.97 1179.96C1865.97 1179.96 2049.76 1122.62 2071.67 1114.01C2093.56 1105.4 1992.1 835.826 1992.1 835.826L1917.49 861.236L1957.58 937.066C1957.58 937.066 1977.43 979.536 2018.71 1049.42C2018.71 1049.42 1993.31 1073.55 1844.82 1121.04Z" fill="#383860"/>
<path d="M1731.97 507.396C1727.44 505.516 1721.68 505.889 1716.88 507.049C1714.24 507.689 1711.64 508.609 1709.18 509.823C1705.46 511.663 1700.72 514.569 1701.92 518.543C1702.17 519.369 1702.76 520.076 1703.46 520.503C1705.21 521.569 1706.61 521.316 1708.68 520.249C1710.68 519.249 1711.25 518.383 1716.42 516.836C1719.74 515.889 1723.18 515.263 1726.62 515.143C1727.36 515.143 1728.09 515.209 1728.82 515.223C1731.14 515.263 1733.06 514.836 1734.16 512.796C1734.4 512.356 1734.53 511.903 1734.64 511.423C1734.97 510.063 1734.25 508.383 1731.97 507.396Z" fill="#3D3C3B"/>
<path d="M1947.48 1601.49H1508.55C1498.99 1601.49 1491.22 1593.73 1491.22 1584.16V1553.17C1491.22 1543.6 1498.99 1535.84 1508.55 1535.84H1947.48C1957.06 1535.84 1964.81 1543.6 1964.81 1553.17V1584.16C1964.81 1593.73 1957.06 1601.49 1947.48 1601.49Z" fill="#EF658A"/>
<path d="M1928.91 1601.49H1500.22C1490.64 1601.49 1482.88 1593.73 1482.88 1584.16V1553.17C1482.88 1543.6 1490.64 1535.84 1500.22 1535.84H1928.91C1938.49 1535.84 1946.25 1543.6 1946.25 1553.17V1584.16C1946.25 1593.73 1938.49 1601.49 1928.91 1601.49Z" fill="#FE6E8D"/>
<path d="M1777.53 1667C1777.53 1671.21 1774.1 1674.64 1769.89 1674.64C1765.66 1674.64 1762.25 1671.21 1762.25 1667C1762.25 1662.77 1765.66 1659.36 1769.89 1659.36C1774.1 1659.36 1777.53 1662.77 1777.53 1667Z" fill="white"/>
<path d="M2123.16 2054.83C2123.16 2054.83 1397.85 2054.83 1344.62 2054.83C1293.19 2004.84 1287.63 1940.87 1344.62 1903.21C1399.35 1903.21 2123.16 1903.21 2123.16 1903.21V1921.36H2098.49V2034.52H2123.16V2054.83Z" fill="#4D4D84"/>
<path d="M2098.49 2034.52C2098.49 2034.52 1409.23 2034.52 1359.19 2034.52C1323.58 2009.45 1322.54 1944.33 1359.19 1921.36C1410.62 1921.36 2098.49 1921.36 2098.49 1921.36V2034.52Z" fill="white"/>
<path d="M1359.72 2034.52C1359.55 2034.52 1359.36 2034.52 1359.19 2034.52C1341.26 2021.89 1332.08 1999.08 1332.09 1976.63C1332.11 1954.52 1341.01 1932.75 1359.19 1921.36C1410.62 1921.36 2098.49 1921.36 2098.49 1921.36V1942.45C1987.97 1942.45 1424.3 1942.45 1377.96 1942.45C1349.24 1960.45 1343.66 2004.3 1359.72 2034.52Z" fill="#D6D2CB"/>
<path d="M2067.93 2184.81H2092.6V2205.11C2092.6 2205.11 1367.3 2205.11 1314.06 2205.11C1278.41 2170.45 1264.8 2129.1 1278.78 2094.45C1284.96 2079.11 1296.56 2065.05 1314.06 2053.5C1368.79 2053.5 2092.6 2053.5 2092.6 2053.5V2071.64H2067.93V2184.81Z" fill="#383860"/>
<path d="M2185.69 2205.11C2185.69 2205.11 1460.4 2205.11 1407.14 2205.11C1355.72 2155.12 1350.16 2091.15 1407.14 2053.49C1461.88 2053.49 2185.69 2053.49 2185.69 2053.49V2071.64L2161.02 2071.65V2184.81H2185.69V2205.11Z" fill="#56548C"/>
<path d="M2161.02 2184.81C2161.02 2184.81 1471.76 2184.81 1421.73 2184.81C1386.12 2159.73 1385.08 2094.61 1421.73 2071.65C1473.15 2071.65 2161.02 2071.65 2161.02 2071.65V2184.81Z" fill="white"/>
<path d="M1422.24 2184.81C1422.07 2184.81 1421.89 2184.81 1421.73 2184.81C1403.79 2172.17 1394.61 2149.37 1394.62 2126.92C1394.63 2104.81 1403.54 2083.04 1421.73 2071.65C1473.15 2071.65 2161.02 2071.65 2161.02 2071.65V2088.87V2092.73C2050.49 2092.73 1486.84 2092.73 1440.49 2092.73C1411.77 2110.73 1406.2 2154.6 1422.24 2184.81Z" fill="#D6D2CB"/>
<path d="M2092.6 1752.76C2092.6 1752.76 1367.31 1752.76 1314.06 1752.76C1262.63 1702.78 1257.07 1638.8 1314.06 1601.16C1368.78 1601.16 2092.6 1601.16 2092.6 1601.16V1619.3H2067.93V1732.46H2092.6V1752.76Z" fill="#4D4D84"/>
<path d="M2185.69 1752.76C2185.69 1752.76 1460.4 1752.76 1407.14 1752.76C1355.72 1702.79 1350.16 1638.8 1407.14 1601.16C1461.88 1601.16 2185.69 1601.16 2185.69 1601.16V1619.31H2161.02V1732.47H2185.69V1752.76Z" fill="#5C5C8E"/>
<path d="M2161.02 1732.47C2161.02 1732.47 1471.76 1732.47 1421.73 1732.47C1386.12 1707.4 1385.08 1642.27 1421.73 1619.31C1473.15 1619.31 2161.02 1619.31 2161.02 1619.31V1732.47Z" fill="white"/>
<path d="M1422.24 1732.47C1422.07 1732.47 1421.89 1732.47 1421.73 1732.47C1403.79 1719.84 1394.61 1697.03 1394.62 1674.57C1394.63 1652.47 1403.54 1630.69 1421.73 1619.31C1473.15 1619.31 2161.02 1619.31 2161.02 1619.31V1624.56V1640.4C2050.49 1640.4 1486.84 1640.4 1440.49 1640.4C1411.77 1658.39 1406.2 1702.25 1422.24 1732.47Z" fill="#D6D2CB"/>
<path d="M2161.41 1904.11H1356.57C1335.76 1904.11 1318.89 1887.24 1318.89 1866.43V1788.27C1318.89 1767.45 1335.76 1750.58 1356.57 1750.58H2160.56C2166.96 1750.58 2172.15 1755.78 2172.15 1762.18V1893.36C2172.15 1899.29 2167.33 1904.11 2161.41 1904.11Z" fill="#383860"/>
<path d="M1524.1 1904.11H1450.9V1750.59H1524.1V1904.11Z" fill="#56548C"/>
<path d="M2057.41 2164.63H1544.96C1542.5 2164.63 1540.5 2162.63 1540.5 2160.19V2157.83C1540.5 2155.37 1542.5 2153.37 1544.96 2153.37H2057.41C2059.85 2153.37 2061.85 2155.37 2061.85 2157.83V2160.19C2061.85 2162.63 2059.85 2164.63 2057.41 2164.63Z" fill="#E3DCD5"/>
<path d="M1984.38 2134.29H1471.92C1469.48 2134.29 1467.47 2132.29 1467.47 2129.84V2126.63C1467.47 2124.17 1469.48 2122.17 1471.92 2122.17H1984.38C1986.82 2122.17 1988.83 2124.17 1988.83 2126.63V2129.84C1988.83 2132.29 1986.82 2134.29 1984.38 2134.29Z" fill="#E3DCD5"/>
<path d="M2034.05 1699.15H1521.6C1519.15 1699.15 1517.16 1697.15 1517.16 1694.71V1691.48C1517.16 1689.04 1519.15 1687.04 1521.6 1687.04H2034.05C2036.5 1687.04 2038.49 1689.04 2038.49 1691.48V1694.71C2038.49 1697.15 2036.5 1699.15 2034.05 1699.15Z" fill="#E3DCD5"/>
<path d="M2045.46 1978.68H1533.01C1530.57 1978.68 1528.57 1976.68 1528.57 1974.24V1971.01C1528.57 1968.57 1530.57 1966.57 1533.01 1966.57H2045.46C2047.92 1966.57 2049.92 1968.57 2049.92 1971.01V1974.24C2049.92 1976.68 2047.92 1978.68 2045.46 1978.68Z" fill="#E3DCD5"/>
<path d="M1018.61 0L1372.61 27.563C1396.6 27.563 1416.07 47.025 1416.07 71.023L1388.5 244.486C1388.5 268.484 1369.04 287.931 1345.04 287.931L1328.34 288.963C1328.34 288.963 1318.42 326.371 1337.88 345.818C1337.88 345.818 1279.94 331.817 1270.58 292.528L1046.17 306.317C1022.18 306.317 1002.72 286.854 1002.72 262.871L975.147 43.46C975.147 19.462 994.607 0 1018.61 0Z" fill="#A8A1E2"/>
<path d="M1061.36 115.558C1061.36 120.478 1065.35 124.47 1070.27 124.47H1320.96C1325.88 124.47 1329.86 120.478 1329.86 115.558C1329.86 110.637 1325.88 106.645 1320.96 106.645H1070.27C1065.35 106.645 1061.36 110.637 1061.36 115.558Z" fill="#EFECF7"/>
<path d="M1061.35 153.158C1061.35 158.086 1065.35 162.085 1070.27 162.085H1320.96C1325.87 162.085 1329.86 158.086 1329.86 153.158C1329.86 148.244 1325.87 144.244 1320.96 144.244H1070.27C1065.35 144.244 1061.35 148.244 1061.35 153.158Z" fill="#EFECF7"/>
<path d="M1061.35 190.753C1061.35 195.686 1065.35 199.677 1070.27 199.677H1320.95C1325.87 199.677 1329.86 195.686 1329.86 190.753C1329.86 185.834 1325.87 181.843 1320.95 181.843H1070.27C1065.35 181.843 1061.35 185.834 1061.35 190.753Z" fill="#EFECF7"/>
<path d="M838.507 1670.75L909.297 1804.67L813.637 1797.01L838.507 1670.75Z" fill="#6F5DC6"/>
<path d="M692.77 1441.89C692.014 1441.95 691.24 1441.91 690.48 1441.93C688.406 1442.03 686.339 1442.25 684.287 1442.57C681.244 1443.05 678.235 1443.73 675.283 1444.6C671.598 1445.71 668.004 1447.11 664.56 1448.81C660.542 1450.8 656.728 1453.21 653.208 1455.99C649.16 1459.19 645.51 1462.87 642.32 1466.91C638.582 1471.65 635.487 1476.89 632.987 1482.39C629.963 1489.03 627.804 1496.04 626.3 1503.17C624.435 1512.03 623.566 1521.07 623.351 1530.09C623.274 1533.39 623.422 1536.67 623.462 1539.96C623.486 1541.85 623.574 1543.68 623.008 1545.49C622.112 1548.37 620.644 1551.08 618.787 1553.45C616.144 1556.81 612.675 1559.45 608.803 1561.25C595.907 1567.25 553.923 1578.95 550.324 1634.12C546.726 1689.31 544.327 1702.49 523.935 1713.29C503.543 1724.09 509.54 1752.88 529.932 1766.07C550.324 1779.27 867.007 1758.88 867.007 1758.88C867.007 1758.88 899.397 1704.29 855.007 1662.31C810.627 1620.33 835.817 1609.53 828.017 1575.95C820.217 1542.36 790.837 1539.96 790.237 1523.76C789.637 1507.57 787.837 1435.6 692.77 1441.89Z" fill="#3D3C3B"/>
<path d="M777.237 1588.45C767.377 1623.01 739.487 1617.73 706.134 1607.51C672.782 1597.29 653.724 1560.99 663.591 1526.41C673.442 1491.85 708.476 1472.09 741.828 1482.32C775.177 1492.53 787.087 1553.88 777.237 1588.45Z" fill="#EEA886"/>
<path d="M714.09 1467.17C714.09 1467.17 739.028 1509.64 695.006 1532.23C650.983 1554.8 663.282 1591.28 663.282 1591.28C663.282 1591.28 639.098 1581.09 644.188 1540.37C649.28 1499.64 636.551 1488.17 667.1 1476.72C697.65 1465.27 714.09 1467.17 714.09 1467.17Z" fill="#3D3C3B"/>
<path d="M743.292 1601.47C743.292 1601.47 734.978 1629.15 746.136 1636.79C757.297 1644.43 695.954 1642.84 695.954 1642.84C695.954 1642.84 691 1609.84 701.258 1594.8C711.543 1579.71 743.292 1601.47 743.292 1601.47Z" fill="#EEA886"/>
<path d="M677.272 1574.09C677.272 1579.32 673.04 1583.55 667.82 1583.55C662.6 1583.55 658.368 1579.32 658.368 1574.09C658.368 1568.88 662.6 1564.64 667.82 1564.64C673.04 1564.64 677.272 1568.88 677.272 1574.09Z" fill="#EEA886"/>
<path d="M713.562 1550.63C713.562 1553.57 711.175 1555.96 708.23 1555.96C705.286 1555.96 702.898 1553.57 702.898 1550.63C702.898 1547.68 705.286 1545.29 708.23 1545.29C711.175 1545.29 713.562 1547.68 713.562 1550.63Z" fill="#3D3C3B"/>
<path d="M763.417 1523.77C763.417 1526.59 761.127 1528.88 758.307 1528.88C755.487 1528.88 753.207 1526.59 753.207 1523.77C753.207 1520.95 755.487 1518.67 758.307 1518.67C761.127 1518.67 763.417 1520.95 763.417 1523.77Z" fill="#3D3C3B"/>
<path d="M711.376 1536.27C711.391 1536.48 704.462 1538.47 703.792 1538.71C699.818 1540.15 695.662 1541.71 692.724 1544.95C691.46 1546.35 690.658 1548.07 689.938 1549.83C689.264 1551.47 688.711 1553.73 687.502 1555.01C687.332 1554.47 687.408 1553.83 687.451 1553.25C687.686 1550.12 687.886 1546.83 688.87 1543.85C690.234 1539.71 694.446 1536.13 698.075 1534.11C701.672 1532.09 710.916 1529.43 711.376 1536.27Z" fill="#3D3C3B"/>
<path d="M742.423 1521.55C742.604 1521.67 747.759 1516.63 748.3 1516.16C751.507 1513.41 754.927 1510.57 759.197 1509.63C761.027 1509.21 762.927 1509.37 764.807 1509.61C766.567 1509.83 768.807 1510.48 770.517 1510.05C770.127 1509.64 769.537 1509.39 769.017 1509.15C766.177 1507.8 763.217 1506.35 760.147 1505.72C755.867 1504.87 750.687 1506.76 747.124 1508.91C743.596 1511.04 736.706 1517.76 742.423 1521.55Z" fill="#3D3C3B"/>
<path d="M631.295 1498.15C628.412 1507.2 625.719 1516.31 623.614 1525.56C622.554 1530.17 621.642 1534.84 620.826 1539.51L620.234 1543.03L619.948 1544.79C619.827 1545.4 619.638 1546.07 619.478 1546.71C618.61 1549.27 616.808 1551.31 614.864 1552.87C612.903 1554.45 610.738 1555.64 608.547 1556.69C606.352 1557.73 604.12 1558.65 601.871 1559.48C599.626 1560.33 597.368 1561.12 595.116 1561.89L591.743 1563.07C590.639 1563.49 589.564 1563.89 588.499 1564.37C584.255 1566.32 580.314 1568.96 576.624 1571.89C572.926 1574.83 569.454 1578.09 566.3 1581.6L566.286 1581.61C566.098 1581.83 565.775 1581.84 565.566 1581.65C565.36 1581.47 565.342 1581.15 565.518 1580.95C568.635 1577.27 572.024 1573.88 575.707 1570.77C579.372 1567.67 583.387 1564.92 587.77 1562.8C588.863 1562.28 590.016 1561.83 591.132 1561.37L594.488 1560.15C596.726 1559.32 598.955 1558.49 601.155 1557.63C603.36 1556.77 605.523 1555.83 607.614 1554.79C609.7 1553.75 611.718 1552.57 613.44 1551.13C615.16 1549.69 616.59 1547.96 617.224 1545.96C617.334 1545.44 617.467 1544.96 617.575 1544.41L617.858 1542.64L618.444 1539.09C619.254 1534.39 620.16 1529.68 621.218 1525.01C622.274 1520.35 623.452 1515.69 624.767 1511.09C626.087 1506.49 627.568 1501.95 629.083 1497.41C629.287 1496.8 629.947 1496.48 630.558 1496.68C631.162 1496.88 631.487 1497.53 631.295 1498.15Z" fill="#3D3C3B"/>
<path d="M692.794 1625.47C706.04 1628.64 732.423 1634.64 747.851 1635.76C752.067 1636.07 755.307 1639.59 755.307 1643.81V1649.11C755.307 1649.11 830.767 1656.09 838.507 1670.75C846.257 1685.4 855.797 1925.61 855.797 1925.61H597.143L615.252 1670.75C615.252 1670.75 645.402 1659.25 683.251 1655.55L684.326 1631.84C684.522 1627.52 688.591 1624.45 692.794 1625.47Z" fill="#755CCD"/>
<path d="M712.395 1873.59C704.068 1887.51 695.711 1901.43 687.384 1915.37C685.288 1918.89 627.758 1903.84 599.196 1896.41C591.743 1894.47 586.27 1893.04 584.231 1892.6C567.054 1888.83 549.847 1885 532.67 1881.23C519.48 1878.31 503.875 1876.83 492.782 1868.49C486.231 1863.55 481.427 1855.69 481.951 1847.48C482.388 1840.49 486.464 1834.35 490.423 1828.55C528.796 1771.81 575.09 1726.27 615.238 1670.75L606.475 1794.2C599.691 1802.15 580.646 1825.39 579.194 1825.37C587.318 1828.37 595.47 1831.35 603.622 1834.29C639.811 1847.53 676.088 1860.61 712.395 1873.59Z" fill="#6F5DC6"/>
<path d="M744.77 1912.81H689.365L689.335 1912.11C696.148 1900.73 702.961 1889.35 709.745 1877.99L710.153 1878.05C724.943 1881.25 739.064 1887.4 741.422 1897.93L744.77 1912.81Z" fill="#EEA886"/>
<path fill-rule="evenodd" clip-rule="evenodd" d="M985.287 1925.61H744.114C737.222 1925.61 733.056 1919.99 734.848 1913.09L775.477 1756.88C777.267 1749.99 784.367 1744.36 791.257 1744.36H1032.43C1039.32 1744.36 1043.49 1749.99 1041.7 1756.88L1001.07 1913.09C999.277 1919.99 992.177 1925.61 985.287 1925.61Z" fill="url(#paint0_linear_2_243)"/>
<path fill-rule="evenodd" clip-rule="evenodd" d="M764.987 1925.61H654.979C649.303 1925.61 644.67 1920.99 644.67 1915.31C644.67 1909.63 649.303 1905 654.979 1905H764.987C770.667 1905 775.307 1909.63 775.307 1915.31C775.307 1920.99 770.667 1925.61 764.987 1925.61Z" fill="url(#paint1_linear_2_243)"/>
<path fill-rule="evenodd" clip-rule="evenodd" d="M991.727 1925.61H757.677C750.787 1925.61 746.614 1919.99 748.409 1913.09L789.037 1756.88C790.827 1749.99 797.927 1744.36 804.817 1744.36H1038.87C1045.77 1744.36 1049.93 1749.99 1048.14 1756.88L1007.51 1913.09C1005.72 1919.99 998.617 1925.61 991.727 1925.61Z" fill="#3D3D6B"/>
<path d="M742.288 1563.51C742.039 1563.51 741.792 1563.4 741.619 1563.2C741.308 1562.83 741.355 1562.27 741.724 1561.96C742.192 1561.57 742.691 1561.24 743.174 1560.91C743.759 1560.52 744.311 1560.15 744.77 1559.71C745.934 1558.57 745.904 1557.55 744.675 1556.28C743.974 1555.56 743.418 1555.01 742.923 1554.53C740.948 1552.61 739.958 1551.64 735.223 1544.89C734.946 1544.51 735.04 1543.96 735.436 1543.68C735.83 1543.4 736.376 1543.49 736.654 1543.89C741.294 1550.51 742.246 1551.44 744.144 1553.28C744.648 1553.77 745.214 1554.33 745.928 1555.07C747.818 1557 747.84 1559.15 745.992 1560.96C745.416 1561.52 744.77 1561.95 744.144 1562.37C743.682 1562.68 743.244 1562.97 742.851 1563.29C742.687 1563.44 742.487 1563.51 742.288 1563.51Z" fill="#3D3C3B"/>
<path d="M743.688 1589.75C737.967 1589.75 733.592 1588.04 733.508 1588.01C733 1587.8 732.754 1587.23 732.958 1586.72C733.16 1586.21 733.736 1585.97 734.246 1586.17C734.396 1586.23 749.394 1592.05 759.397 1581.16C759.767 1580.75 760.397 1580.72 760.797 1581.09C761.207 1581.47 761.227 1582.09 760.857 1582.49C755.567 1588.25 749.04 1589.75 743.688 1589.75Z" fill="#3D3C3B"/>
<path d="M828.527 1600.49C828.937 1605.71 830.047 1610.87 831.897 1615.76C833.747 1620.65 836.327 1625.27 839.517 1629.45C845.917 1637.83 854.567 1644.4 864.007 1649.33C864.667 1649.68 864.927 1650.49 864.587 1651.16C864.237 1651.83 863.437 1652.08 862.767 1651.76C852.967 1646.88 843.817 1640.24 836.867 1631.51C833.407 1627.15 830.547 1622.29 828.467 1617.09C826.377 1611.91 825.087 1606.4 824.537 1600.84C824.427 1599.73 825.237 1598.76 826.337 1598.65C827.437 1598.55 828.417 1599.35 828.517 1600.44C828.517 1600.45 828.527 1600.48 828.527 1600.49Z" fill="#3D3C3B"/>
<path d="M708.23 1481.71C708.23 1481.71 776.057 1497.4 782.217 1551.83C782.217 1551.83 788.927 1461.96 708.23 1481.71Z" fill="#3D3C3B"/>
<path d="M1090.16 2111.36C1090.16 2111.36 379.53 2111.36 327.359 2111.36C276.974 2044.76 271.53 1959.49 327.359 1909.32C380.978 1909.32 1090.16 1909.32 1090.16 1909.32V1933.51H1065.99V2084.32H1090.16V2111.36Z" fill="#4D4D84"/>
<path d="M1181.37 2111.36C1181.37 2111.36 470.742 2111.36 418.571 2111.36C368.184 2044.76 362.736 1959.49 418.571 1909.32C472.19 1909.32 1181.37 1909.32 1181.37 1909.32V1933.51H1157.2V2084.32H1181.37V2111.36Z" fill="#5C5C8E"/>
<path d="M1157.2 2084.32C1157.2 2084.32 481.876 2084.32 432.859 2084.32C397.971 2050.91 396.944 1964.11 432.859 1933.51C483.235 1933.51 1157.2 1933.51 1157.2 1933.51V2084.32Z" fill="white"/>
<path d="M433.375 2084.32C433.196 2084.32 433.022 2084.32 432.859 2084.32C415.275 2067.48 406.294 2037.09 406.304 2007.16C406.316 1977.71 415.044 1948.69 432.859 1933.51C483.235 1933.51 1157.2 1933.51 1157.2 1933.51V1940.51V1961.61C1048.91 1961.61 496.654 1961.61 451.238 1961.61C423.103 1985.6 417.644 2044.05 433.375 2084.32Z" fill="#D6D2CB"/>
<path d="M1062.7 2015.63H559.095C555.612 2015.63 552.763 2012.77 552.763 2009.29V2006.63C552.763 2003.15 555.612 2000.29 559.095 2000.29H1062.7C1066.18 2000.29 1069.03 2003.15 1069.03 2006.63V2009.29C1069.03 2012.77 1066.18 2015.63 1062.7 2015.63Z" fill="#E3DCD5"/>
<path d="M986.867 2064.23H483.26C479.776 2064.23 476.928 2061.39 476.928 2057.91V2055.24C476.928 2051.75 479.776 2048.91 483.26 2048.91H986.867C990.347 2048.91 993.197 2051.75 993.197 2055.24V2057.91C993.197 2061.39 990.347 2064.23 986.867 2064.23Z" fill="#E3DCD5"/>
<path d="M884.507 1176.47L722.752 1189.07C711.787 1189.07 702.898 1197.96 702.898 1208.93L715.492 1288.19C715.492 1299.16 724.383 1308.04 735.348 1308.04L742.983 1308.52H742.982C742.982 1308.52 747.512 1325.61 738.624 1334.49C738.624 1334.49 765.097 1328.09 769.377 1310.13L871.917 1316.44C882.877 1316.44 891.767 1307.55 891.767 1296.59L904.367 1196.33C904.367 1185.36 895.477 1176.47 884.507 1176.47Z" fill="#A8A1E2"/>
<path d="M775.727 1250.71C775.727 1256.65 770.897 1261.47 764.957 1261.47C759.007 1261.47 754.187 1256.65 754.187 1250.71C754.187 1244.76 759.007 1239.93 764.957 1239.93C770.897 1239.93 775.727 1244.76 775.727 1250.71Z" fill="white"/>
<path d="M809.777 1249.21C809.777 1255.16 804.947 1259.99 798.997 1259.99C793.057 1259.99 788.237 1255.16 788.237 1249.21C788.237 1243.27 793.057 1238.44 798.997 1238.44C804.947 1238.44 809.777 1243.27 809.777 1249.21Z" fill="white"/>
<path d="M843.817 1247.72C843.817 1253.67 838.997 1258.49 833.047 1258.49C827.107 1258.49 822.277 1253.67 822.277 1247.72C822.277 1241.77 827.107 1236.95 833.047 1236.95C838.997 1236.95 843.817 1241.77 843.817 1247.72Z" fill="white"/>
<path d="M2872.25 1539.29C2844.56 1496.04 2816.82 1402.2 2816.82 1402.2L2771.85 1397.74V1395.5L2767.73 1396.62L2763.61 1395.5V1397.74L2691.15 1416.57C2691.15 1416.57 2688.73 1498.21 2661.03 1541.45C2633.67 1584.2 2653.32 1637.58 2767.73 1629.72C2882.16 1637.58 2899.61 1582.02 2872.25 1539.29Z" fill="#3D3C3B"/>
<path d="M2820.13 1423.04C2820.13 1460.24 2791.18 1490.4 2755.48 1490.4C2719.77 1490.4 2690.83 1460.24 2690.83 1423.04C2690.83 1385.85 2719.77 1360.55 2755.48 1360.55C2791.18 1360.55 2820.13 1385.85 2820.13 1423.04Z" fill="#3D3C3B"/>
<path d="M2753.33 1382.41C2697.45 1381.45 2702.27 1430.87 2702.27 1430.87C2702.27 1430.87 2700.11 1457 2707.86 1479.15C2711.78 1490.3 2716.79 1496.31 2732.48 1507.16C2732.24 1510.83 2730.25 1533.54 2729.14 1551.26C2728.5 1561.14 2729.37 1568.72 2729.37 1568.72C2729.37 1568.72 2748.84 1569.58 2780.78 1567.91L2780.09 1560.04L2775.17 1549.8L2775.04 1533.37L2773.9 1508.08L2776.39 1505.85C2787.78 1497.41 2795.7 1488.35 2799.72 1479.32C2804.76 1468.01 2805.83 1450.43 2805.83 1430.87C2805.83 1430.87 2809.17 1383.37 2753.33 1382.41Z" fill="#F8BD8C"/>
<path d="M2708.69 1382.69C2708.69 1382.69 2728.13 1422.07 2812.11 1424.03C2812.11 1424.03 2821.19 1386.76 2778.15 1371.95C2735.1 1357.15 2708.69 1382.69 2708.69 1382.69Z" fill="#3D3C3B"/>
<path d="M2696.76 1430.59C2696.76 1430.59 2722.68 1422.97 2726.02 1380.15C2726.02 1380.15 2699.77 1384.15 2696.76 1430.59Z" fill="#3D3C3B"/>
<path d="M2737.83 1437.36C2737.78 1437.53 2731.41 1436.68 2730.79 1436.64C2727.05 1436.37 2723.09 1436.15 2719.56 1437.65C2718.04 1438.31 2716.78 1439.37 2715.57 1440.48C2714.45 1441.52 2713.2 1443.09 2711.75 1443.68C2711.81 1443.19 2712.1 1442.72 2712.34 1442.29C2713.62 1439.93 2714.94 1437.45 2716.8 1435.47C2719.36 1432.72 2724.06 1431.4 2727.73 1431.08C2731.38 1430.76 2739.87 1431.88 2737.83 1437.36Z" fill="#3D3C3B"/>
<path d="M2770.55 1437.64C2770.63 1437.81 2776.91 1436.56 2777.54 1436.48C2781.28 1435.99 2785.19 1435.51 2788.81 1436.79C2790.38 1437.33 2791.69 1438.32 2792.98 1439.35C2794.16 1440.32 2795.5 1441.81 2796.98 1442.29C2796.89 1441.81 2796.59 1441.36 2796.31 1440.95C2794.87 1438.68 2793.41 1436.28 2791.43 1434.43C2788.72 1431.84 2783.94 1430.83 2780.25 1430.73C2776.59 1430.64 2768.2 1432.31 2770.55 1437.64Z" fill="#3D3C3B"/>
<path d="M2711.37 1458.99C2711.37 1463.72 2707.54 1467.55 2702.82 1467.55C2698.1 1467.55 2694.26 1463.72 2694.26 1458.99C2694.26 1454.27 2698.1 1450.43 2702.82 1450.43C2707.54 1450.43 2711.37 1454.27 2711.37 1458.99Z" fill="#F8BD8C"/>
<path d="M2814.02 1458.99C2814.02 1463.72 2810.19 1467.55 2805.47 1467.55C2800.73 1467.55 2796.9 1463.72 2796.9 1458.99C2796.9 1454.27 2800.73 1450.43 2805.47 1450.43C2810.19 1450.43 2814.02 1454.27 2814.02 1458.99Z" fill="#F8BD8C"/>
<path d="M2726.25 1453.41C2720.63 1453.41 2716.59 1450.25 2716.56 1450.2C2715.84 1449.64 2715.73 1448.6 2716.3 1447.9C2716.87 1447.2 2717.9 1447.09 2718.61 1447.65C2718.9 1447.89 2725.77 1453.21 2733.78 1447.58C2734.51 1447.06 2735.52 1447.25 2736.05 1447.98C2736.56 1448.73 2736.4 1449.74 2735.67 1450.26C2732.31 1452.62 2729.09 1453.41 2726.25 1453.41Z" fill="#3D3C3B"/>
<path d="M2780.17 1453.42C2774.52 1453.42 2770.53 1450.25 2770.45 1450.2C2769.76 1449.64 2769.65 1448.6 2770.21 1447.91C2770.79 1447.2 2771.81 1447.1 2772.5 1447.65C2772.8 1447.88 2779.68 1453.23 2787.69 1447.59C2788.43 1447.07 2789.44 1447.26 2789.96 1447.99C2790.48 1448.74 2790.32 1449.75 2789.57 1450.27C2786.21 1452.63 2782.99 1453.42 2780.17 1453.42Z" fill="#3D3C3B"/>
<path d="M3115.96 2036.67C3115.96 2036.67 2346.57 2036.67 2290.1 2036.67C2235.53 1983.64 2229.65 1915.77 2290.1 1875.84C2348.14 1875.84 3115.96 1875.84 3115.96 1875.84V1895.09H3089.78V2015.13H3115.96V2036.67Z" fill="#4D4D84"/>
<path d="M3214.7 2036.67C3214.7 2036.67 2445.32 2036.67 2388.83 2036.67C2334.28 1983.64 2328.37 1915.77 2388.83 1875.84C2446.87 1875.84 3214.7 1875.84 3214.7 1875.84V1895.09H3188.53V2015.13H3214.7V2036.67Z" fill="#5C5C8E"/>
<path d="M3188.55 2015.13C3188.55 2015.13 2457.38 2015.13 2404.31 2015.13C2366.56 1988.53 2365.42 1919.45 2404.31 1895.09C2458.86 1895.09 3188.55 1895.09 3188.55 1895.09V2015.13Z" fill="white"/>
<path d="M2404.86 2015.13C2404.67 2015.13 2404.5 2015.13 2404.31 2015.13C2385.29 2001.73 2375.54 1977.53 2375.57 1953.72C2375.57 1930.27 2385.04 1907.17 2404.31 1895.09C2458.86 1895.09 3188.55 1895.09 3188.55 1895.09V1900.67V1917.47C3071.3 1917.47 2473.39 1917.47 2424.23 1917.47C2393.75 1936.54 2387.84 1983.08 2404.86 2015.13Z" fill="#D6D2CB"/>
<path d="M3188.92 2197.2H2335.18C2313.11 2197.2 2295.22 2179.31 2295.22 2157.24V2074.32C2295.22 2052.25 2313.11 2034.36 2335.18 2034.36H3188.03C3194.83 2034.36 3200.33 2039.87 3200.33 2046.65V2185.8C3200.33 2192.09 3195.23 2197.2 3188.92 2197.2Z" fill="#FE6E8D"/>
<path d="M2512.93 2197.2H2435.27V2034.36H2512.93V2197.2Z" fill="#EF658A"/>
<path d="M3107.4 1985.29H2472.85C2470.41 1985.29 2468.41 1983.29 2468.41 1980.85V1975.84C2468.41 1973.4 2470.41 1971.4 2472.85 1971.4H3107.4C3109.83 1971.4 3111.83 1973.4 3111.83 1975.84V1980.85C3111.83 1983.29 3109.83 1985.29 3107.4 1985.29Z" fill="#E3DCD5"/>
<path d="M2664.2 1557.51C2635.37 1561.63 2566.32 1723.74 2586.93 1760.83C2607.52 1797.92 2720.87 1841.19 2720.87 1841.19L2714.68 1777.31C2714.68 1777.31 2637.06 1744.33 2643.24 1723.74C2649.44 1703.14 2694.08 1626.19 2694.08 1626.19L2664.2 1557.51Z" fill="#EF658A"/>
<path d="M2934.72 1760.83C2914.1 1797.91 2800.75 1841.19 2800.75 1841.19L2806.94 1777.31C2806.94 1777.31 2884.56 1744.33 2878.39 1723.73C2876.48 1717.36 2870.9 1705.6 2864.08 1692.4C2848.87 1662.9 2827.56 1626.18 2827.56 1626.18L2857.38 1557.52C2859.03 1557.74 2860.82 1558.5 2862.72 1559.73C2893.88 1579.84 2954.14 1725.85 2934.72 1760.83Z" fill="#EF658A"/>
<path d="M2920.23 1881H2619.88C2611.04 1881 2603.88 1873.84 2603.88 1865V1708.4C2603.88 1699.57 2611.04 1692.4 2619.88 1692.4H2904.23C2913.08 1692.4 2920.23 1699.57 2920.23 1708.4V1881Z" fill="#3D3D6B"/>
<path d="M2740.9 1981.63C2740.9 1981.63 2735.29 1986.95 2718.83 1993.88C2701.88 2001 2668.39 2014.25 2673.4 2028.85C2680.15 2048.51 2703.79 2047.08 2719.44 2042.36C2753.4 2032.16 2788.74 2008.21 2788.74 2008.21L2740.9 1981.63Z" fill="#3D3D6B"/>
<path d="M2781.49 1930.35C2838.93 1888.43 2868.94 1857.45 2933.4 1818.28C2948.75 1808.96 2959.24 1806.18 2985.87 1816.61C3008.51 1825.51 3006.09 1864.48 2993.72 1880.72C2956.62 1929.48 2813.69 1996.8 2784.81 2007.01C2772.36 2011.4 2728.3 1974.31 2746.19 1956.56C2755.01 1947.81 2765.96 1941.68 2781.49 1930.35Z" fill="#9794D3"/>
<path d="M2755.02 2011.09C2755.02 2011.09 2769.01 2029.6 2785.3 2042.2C2804.78 2057.25 2818.2 2062.22 2834 2054.88C2856.92 2044.24 2835.84 2021.73 2818.04 2003.93C2791.69 1977.57 2772.82 1966.64 2772.82 1966.64L2755.02 2011.09Z" fill="#3D3D6B"/>
<path d="M2757.94 1956.04L2782.43 1976.28C2782.43 1976.28 2790.94 1983.19 2795.24 1991.21C2803.24 2006.13 2775.63 2036.41 2757.71 2018.61C2739.81 2000.81 2723.79 1981.61 2723.79 1981.61L2757.94 1956.04Z" fill="#F8BD8C"/>
<path d="M2684.88 1988.01C2618.14 1954.41 2577.2 1942.33 2534.29 1881.88C2523.39 1866.48 2519 1841 2523.24 1828.44C2528.47 1812.95 2551.1 1803.68 2577.69 1810.03C2600.03 1815.36 2749.97 1932.83 2773.38 1954.96C2783.46 1964.49 2752.72 2012.23 2727.55 2004C2715.14 1999.96 2702.95 1997.11 2684.88 1988.01Z" fill="#9794D3"/>
<path d="M2869.81 1692.4H2658.27L2664.2 1557.52H2857.37C2859.02 1557.75 2860.82 1558.51 2862.71 1559.73L2869.81 1692.4Z" fill="#FE6E8D"/>
<path d="M2773.35 1527.54C2777.07 1527.54 2778.89 1527.35 2780.24 1530.8C2781.77 1534.63 2783.57 1541.82 2794.49 1543.83C2813.34 1547.31 2847.25 1548.59 2861.23 1559.74C2862.64 1560.87 2863.16 1562.78 2862.61 1564.5L2854.34 1590.12C2853.76 1591.91 2852.14 1593.14 2850.23 1593.19L2676.13 1597.74C2673.97 1597.79 2672.1 1596.3 2671.66 1594.19L2665.34 1563.35C2664.85 1560.95 2666.37 1558.62 2668.78 1558.11C2678.73 1556.03 2703.59 1547.99 2721.12 1543.9C2722.96 1543.47 2723.97 1542.32 2724.18 1540.46L2725.99 1531.47C2726.26 1529.23 2728.15 1527.54 2730.4 1527.54H2773.35Z" fill="#FE6E8D"/>
<path d="M2686.07 1478.25C2686.97 1478.92 2686.84 1479.4 2686.72 1479.87L2686.36 1481.25C2686.1 1482.19 2685.81 1483.09 2685.53 1484C2684.95 1485.8 2684.28 1487.57 2683.6 1489.32C2682.23 1492.81 2680.7 1496.23 2679.2 1499.61C2676.27 1506.41 2673.28 1513.25 2669.93 1519.92C2668.25 1523.25 2666.54 1526.55 2664.68 1529.81C2663.75 1531.45 2662.77 1533.07 2661.73 1534.63C2660.67 1536.21 2659.62 1537.68 2658.61 1539.24C2654.61 1545.35 2650.79 1551.83 2649.69 1559.01V1559.03C2649.62 1559.39 2649.28 1559.64 2648.92 1559.57C2648.56 1559.52 2648.33 1559.21 2648.36 1558.87C2648.67 1555.07 2649.86 1551.39 2651.37 1547.93C2652.88 1544.48 2654.7 1541.19 2656.65 1537.99C2657.62 1536.4 2658.67 1534.81 2659.66 1533.29C2660.63 1531.75 2661.53 1530.16 2662.39 1528.55C2664.12 1525.32 2665.75 1521.99 2667.33 1518.65C2670.47 1511.96 2673.46 1505.21 2676.32 1498.36C2677.8 1494.95 2679.28 1491.57 2680.59 1488.15C2681.26 1486.44 2681.87 1484.72 2682.41 1483C2682.68 1482.13 2682.93 1481.27 2683.17 1480.4L2683.51 1479.09C2683.56 1478.65 2683.65 1478.23 2684.75 1477.99H2684.79C2685.26 1477.88 2685.71 1478 2686.07 1478.25Z" fill="#3D3C3B"/>
<path d="M2755.27 1490.13C2750.33 1490.13 2746.53 1488.55 2746.46 1488.52C2745.88 1488.28 2745.6 1487.61 2745.86 1487.04C2746.1 1486.47 2746.77 1486.19 2747.35 1486.44C2747.85 1486.65 2759.83 1491.57 2767.96 1482.28C2768.39 1481.8 2769.09 1481.76 2769.58 1482.17C2770.04 1482.59 2770.08 1483.29 2769.67 1483.77C2765.24 1488.81 2759.79 1490.13 2755.27 1490.13Z" fill="#3D3C3B"/>
<path d="M2752.76 1460.64C2752.72 1460.64 2752.67 1460.62 2752.63 1460.62C2752.28 1460.57 2752.04 1460.22 2752.08 1459.85C2752.65 1456.52 2752.91 1453.94 2752.78 1449.1C2752.76 1448.73 2753.05 1448.44 2753.44 1448.42C2753.81 1448.42 2754.1 1448.7 2754.1 1449.08C2754.23 1453.98 2753.96 1456.73 2753.4 1460.08C2753.35 1460.4 2753.07 1460.64 2752.76 1460.64Z" fill="#3D3C3B"/>
<path d="M2810.04 1180.04C2810.04 1150 2784.67 1125.89 2754.16 1127.99C2728.73 1129.75 2708.01 1150.13 2705.89 1175.53C2704.7 1189.57 2709.08 1202.56 2717.07 1212.56C2725.01 1222.49 2729.67 1234.65 2729.67 1247.38V1258.86C2729.67 1265.85 2735.34 1271.5 2742.3 1271.5H2773.42C2780.41 1271.5 2786.06 1265.85 2786.06 1258.86V1247.37C2786.06 1234.66 2790.69 1222.52 2798.63 1212.58C2805.78 1203.66 2810.04 1192.36 2810.04 1180.04Z" fill="#A8A1E2"/>
<path d="M2778.65 1299.4H2737.09C2734.54 1299.4 2732.47 1297.33 2732.47 1294.79V1282.49C2732.47 1279.94 2734.54 1277.89 2737.09 1277.89H2778.65C2781.2 1277.89 2783.27 1279.94 2783.27 1282.49V1294.79C2783.27 1297.33 2781.2 1299.4 2778.65 1299.4Z" fill="#56548C"/>
<path d="M2760.08 1157.27H2760.06H2760.08ZM2760.47 1250.68C2759.67 1250.68 2758.93 1250.33 2758.43 1249.73C2753.27 1243.65 2748.01 1230.49 2751.58 1221.64C2752.75 1218.73 2754.8 1216.42 2756.64 1214.4C2758.27 1212.59 2759.8 1210.87 2760.62 1208.93C2763.25 1202.59 2759.25 1194.93 2755.71 1188.17C2754.8 1186.44 2754.01 1184.87 2753.29 1183.35C2751.64 1179.77 2749.49 1174.37 2750.08 1168.69C2750.58 1163.62 2753.77 1157.72 2759.71 1155.99C2760.38 1155.79 2761.1 1155.87 2761.73 1156.21C2762.36 1156.54 2762.8 1157.12 2763.01 1157.8C2763.21 1158.48 2763.14 1159.2 2762.79 1159.82C2762.45 1160.45 2761.88 1160.91 2761.19 1161.1C2758.21 1161.97 2755.77 1165.4 2755.38 1169.23C2754.93 1173.61 2756.73 1178.09 2758.14 1181.09C2758.8 1182.55 2759.6 1184.08 2760.45 1185.71C2764.53 1193.49 2769.12 1202.33 2765.53 1210.97C2764.38 1213.76 2762.38 1215.99 2760.62 1217.96C2759.01 1219.76 2757.34 1221.6 2756.53 1223.64C2753.92 1230.09 2758.32 1241.36 2762.49 1246.29C2762.95 1246.83 2763.19 1247.52 2763.12 1248.23C2763.06 1248.94 2762.73 1249.59 2762.19 1250.05C2761.71 1250.45 2761.1 1250.68 2760.47 1250.68Z" fill="#EFECF7"/>
<defs>
<linearGradient id="paint0_linear_2_243" x1="1042.12" y1="1834.99" x2="734.432" y2="1834.99" gradientUnits="userSpaceOnUse">
<stop stop-color="#1B1464"/>
<stop offset="1" stop-color="#1B1464"/>
</linearGradient>
<linearGradient id="paint1_linear_2_243" x1="775.307" y1="1915.31" x2="644.67" y2="1915.31" gradientUnits="userSpaceOnUse">
<stop stop-color="#1B1464"/>
<stop offset="1" stop-color="#1B1464"/>
</linearGradient>
</defs>
</svg>
