<svg width="588" height="589" viewBox="0 0 588 589" fill="none" xmlns="http://www.w3.org/2000/svg">
<g id="circle-ring">
<path id="Vector" d="M293.979 588.069C226.068 588.069 160.258 564.522 107.761 521.44C55.2655 478.358 19.3316 418.407 6.0827 351.8C-7.16624 285.194 3.08946 216.055 35.1024 156.163C67.1152 96.2706 118.905 49.3313 181.646 23.3428C244.388 -2.64573 314.199 -6.07546 379.186 13.638C444.173 33.3514 500.314 74.9883 538.043 131.454C575.773 187.92 592.756 255.721 586.099 323.305C579.443 390.889 549.559 454.074 501.538 502.095C474.345 529.437 441.998 551.115 406.37 565.872C370.743 580.63 332.542 588.174 293.979 588.069V588.069ZM293.979 3.24069C133.359 3.24069 2.68504 133.914 2.68504 294.534C2.68504 455.154 133.359 585.828 293.979 585.828C454.598 585.828 585.272 455.154 585.272 294.534C585.272 133.914 454.598 3.24069 293.979 3.24069V3.24069Z" fill="#2F2E41"/>
<path id="circle" d="M474.357 120.879C505.294 120.879 530.375 95.7987 530.375 64.8608C530.375 33.9229 505.294 8.84277 474.357 8.84277C443.419 8.84277 418.339 33.9229 418.339 64.8608C418.339 95.7987 443.419 120.879 474.357 120.879Z" fill="#38373F"/>
</g>
</svg>
