<svg width="306" height="348" viewBox="0 0 306 348" fill="none" xmlns="http://www.w3.org/2000/svg">
<g id="cube">
<path id="Vector" d="M305.908 266.443L305.875 266.46L161.201 347.019L2.77896 267.808L0.0489502 266.443L8.27095 102.003L151.334 0.0499878L152.913 1.03699L300.975 93.781L305.908 266.443Z" fill="#7222ED"/>
<path id="Vector_2" opacity="0.3" d="M305.875 266.46L161.201 347.019L2.77905 267.808L143.112 169.424L305.875 266.46Z" fill="black"/>
<path id="Vector_3" opacity="0.1" d="M305.908 266.443L143.112 169.424L152.913 1.03699L300.975 93.781L305.908 266.443Z" fill="black"/>
<path id="Vector_4" d="M6.16496 152.745L5.36096 151.607L150.021 49.5L302.834 145.309L302.094 146.49L150.066 51.173L6.16496 152.745Z" fill="#F2F2F2"/>
<path id="Vector_5" d="M3.36098 208.61L2.57898 207.458L146.505 109.743L146.882 109.957L302.963 198.417L302.275 199.629L146.571 111.382L3.36098 208.61Z" fill="#F2F2F2"/>
<path id="Vector_6" d="M58.276 295.965L57.542 294.781L202.595 204.9V32.594H203.988V205.676L58.276 295.965Z" fill="#F2F2F2"/>
<path id="Vector_7" d="M115.209 324.428L114.469 323.248L254.138 235.645V64.879H255.531V236.416L115.209 324.428Z" fill="#F2F2F2"/>
<path id="Vector_8" d="M253.612 295.982L91.176 205.73L91.199 205.296L99.75 36.281L101.141 36.352L92.612 204.933L254.289 294.764L253.612 295.982Z" fill="#F2F2F2"/>
<path id="Vector_9" d="M202.507 324.455L41.895 240.288L41.92 239.841L51.388 70.742L52.779 70.82L43.337 239.471L203.154 323.221L202.507 324.455Z" fill="#F2F2F2"/>
</g>
</svg>
