<svg width="419" height="539" viewBox="0 0 419 539" fill="none" xmlns="http://www.w3.org/2000/svg">
<g id="female">
<path id="Vector" d="M197.078 368.924C240.28 358.805 277.98 332.558 302.461 295.555C316.205 274.573 325.201 250.82 332.113 226.709C338.895 203.054 343.75 177.713 337.082 154.026C333.432 141.056 326.483 129.254 316.914 119.768C307.344 110.283 295.48 103.438 282.478 99.9002C269.476 96.3627 255.779 96.2536 242.723 99.5832C229.666 102.913 217.694 109.568 207.975 118.9C199.609 126.932 192.955 137.142 190.899 148.555C186.585 172.494 202.616 195.003 207.28 218.877C212.1 243.548 204.601 268.711 198.929 293.201C193.257 317.69 189.662 344.671 201.339 366.932" fill="#F2F2F2"/>
<path id="Vector_2" d="M209.848 418.586C94.5206 418.586 0.695496 324.771 0.695496 209.457C0.695496 94.1425 94.5206 0.327637 209.848 0.327637C325.175 0.327637 419 94.1425 419 209.457C419 324.771 325.175 418.586 209.848 418.586ZM209.848 2.86254C95.9188 2.86254 3.23067 95.5405 3.23067 209.457C3.23067 323.374 95.9188 416.051 209.848 416.051C323.777 416.051 416.465 323.374 416.465 209.457C416.465 95.5405 323.777 2.86254 209.848 2.86254Z" fill="#3F3D56"/>
<path id="Vector_3" d="M178.754 241.952C182.331 242.186 185.675 243.806 188.075 246.468C190.475 249.129 191.742 252.623 191.605 256.204C191.566 256.931 191.467 257.654 191.308 258.366L231.924 283.95L209.469 293.88L174.343 268.062C171.445 267.177 168.921 265.357 167.166 262.887C165.411 260.417 164.523 257.435 164.641 254.407C164.725 252.685 165.147 250.996 165.883 249.437C166.62 247.878 167.656 246.479 168.933 245.32C170.21 244.161 171.703 243.266 173.326 242.684C174.95 242.102 176.672 241.846 178.394 241.929C178.514 241.935 178.634 241.943 178.754 241.952Z" fill="#FFB6B6"/>
<path id="Vector_4" d="M217.92 272.322L207.854 293.089L247.654 318.697C250.486 320.535 253.741 321.618 257.11 321.844C260.478 322.07 263.848 321.43 266.9 319.987V319.987C270.611 318.211 273.643 315.277 275.541 311.628C277.438 307.979 278.098 303.812 277.421 299.755L264.507 226.035C263.64 220.876 260.829 216.245 256.652 213.095C252.475 209.946 247.249 208.516 242.05 209.1V209.1C236.936 209.66 232.253 212.227 229.032 216.238C225.812 220.25 224.316 225.376 224.875 230.49C224.897 230.69 224.922 230.89 224.95 231.089C225.048 231.797 225.184 232.5 225.357 233.194L239.456 285.622L217.92 272.322Z" fill="#8E44FF"/>
<path id="Vector_5" d="M181.747 280.741L166.759 242.072C166.248 240.749 166.282 239.276 166.855 237.978C167.428 236.68 168.493 235.662 169.816 235.148L178.244 231.882C179.568 231.371 181.04 231.405 182.339 231.978C183.637 232.551 184.655 233.616 185.169 234.938L200.157 273.607C200.668 274.931 200.633 276.403 200.06 277.701C199.487 278.999 198.423 280.017 197.1 280.531L188.672 283.797C187.348 284.308 185.876 284.274 184.577 283.701C183.279 283.128 182.261 282.063 181.747 280.741Z" fill="#3F3D56"/>
<path id="Vector_6" d="M171.566 236.738C170.854 237.015 170.28 237.564 169.971 238.263C169.662 238.963 169.644 239.756 169.919 240.47L184.907 279.138C185.184 279.851 185.733 280.425 186.432 280.733C187.132 281.042 187.925 281.061 188.639 280.785L197.067 277.519C197.78 277.242 198.354 276.694 198.662 275.994C198.971 275.295 198.99 274.501 198.714 273.788L183.727 235.119C183.449 234.406 182.901 233.833 182.201 233.524C181.502 233.215 180.708 233.197 179.995 233.472L171.566 236.738Z" fill="#8E44FF"/>
<path id="Vector_7" d="M215.091 361.428H272.01V304.515H215.091V361.428Z" fill="#FFB8B8"/>
<path id="Vector_8" d="M80.1087 472.127L58.3708 464.814L46.2654 523.979L60.9948 528.933L80.1087 472.127Z" fill="#FFB6B6"/>
<path id="Vector_9" d="M118.66 460.871L96.3402 466.149L117.33 522.773L132.454 519.196L118.66 460.871Z" fill="#FFB6B6"/>
<path id="Vector_10" d="M269.968 376.296C281.377 452.343 129.455 407.383 129.455 407.383L81.8212 473.087L53.9343 468.017C53.9343 468.017 66.4824 428.573 88.8919 375.697C98.8438 352.215 211.848 357.953 211.848 357.953L214.194 339.54L278.841 338.273L269.968 376.296Z" fill="#2F2E41"/>
<path id="Vector_11" d="M124.659 391.068L83.284 392.02C89.9168 449.064 95.7647 471.819 95.7647 471.819L119.849 464.214L124.659 391.068Z" fill="#2F2E41"/>
<path id="Vector_12" d="M237.452 212.032L248.909 197.307L265.251 196.599L266.882 210.448L274.98 214.181C283.066 244.896 284.314 277.01 278.638 308.26C277.553 309.282 276.76 310.574 276.341 312.005C275.922 313.435 275.893 314.951 276.255 316.397L276.78 318.49L276.732 318.566C275.009 321.285 274.424 324.572 275.104 327.718V327.718L278.971 334.589C280.359 337.059 281.192 339.803 281.412 342.628C281.632 345.453 281.234 348.293 280.245 350.949C279.257 353.605 277.701 356.013 275.688 358.007C273.674 360.001 271.25 361.533 268.584 362.495C244.813 371.111 222.53 374.32 206.045 350.144L200.861 265.896L237.452 212.032Z" fill="#8E44FF"/>
<path id="Vector_13" d="M249.454 201.218C266.142 201.218 279.67 187.691 279.67 171.004C279.67 154.318 266.142 140.791 249.454 140.791C232.766 140.791 219.237 154.318 219.237 171.004C219.237 187.691 232.766 201.218 249.454 201.218Z" fill="#FFB8B8"/>
<path id="Vector_14" d="M264.623 134.583C277.417 134.829 287.564 146.695 287.288 161.087C296.756 170.965 293.625 183.052 285.714 195.977C271.242 197.657 267.864 198.357 255.173 203.532L253.501 195.719L249.711 205.893C246.486 207.38 243.285 209.012 240.108 210.789C237.825 200.319 238.391 190.143 244.527 181.278C249.978 173.403 236.713 164.054 227.226 165.376L227.365 158.143L224.982 165.332C221.285 168.05 217.194 167.066 212.999 165.102V165.102C206.197 129.754 258.86 120.087 264.623 134.583Z" fill="#2F2E41"/>
<path id="Vector_15" d="M67.6904 538.94L58.0054 537.675L57.4712 528.306L51.8492 536.871L26.1623 533.516C24.931 533.355 23.7834 532.805 22.8869 531.946C21.9904 531.087 21.3921 529.964 21.1792 528.74C20.9664 527.517 21.1501 526.258 21.7037 525.147C22.2573 524.035 23.1517 523.13 24.2563 522.563L46.6195 511.077L47.8271 501.834L69.2346 505.939L67.6904 538.94Z" fill="#2F2E41"/>
<path id="Vector_16" d="M138.011 533.607L128.324 534.853L125.418 525.931L122.166 535.646L96.4732 538.952C95.2416 539.11 93.9916 538.871 92.9057 538.269C91.8197 537.667 90.9547 536.733 90.4369 535.605C89.9191 534.476 89.7756 533.212 90.0274 531.996C90.2792 530.78 90.9131 529.677 91.8365 528.847L110.531 512.038L109.341 502.793L131.088 501.304L138.011 533.607Z" fill="#2F2E41"/>
<path id="Vector_17" d="M182.398 249.02C185.974 249.254 189.319 250.874 191.719 253.536C194.119 256.198 195.385 259.691 195.249 263.272C195.21 264 195.111 264.723 194.952 265.434L235.568 291.019L213.113 300.949L177.987 275.131C175.088 274.245 172.565 272.426 170.81 269.955C169.055 267.485 168.167 264.503 168.285 261.476C168.368 259.753 168.79 258.064 169.527 256.505C170.263 254.946 171.3 253.547 172.577 252.389C173.854 251.23 175.347 250.334 176.97 249.752C178.593 249.171 180.315 248.914 182.038 248.998C182.158 249.004 182.278 249.011 182.398 249.02Z" fill="#FFB6B6"/>
<path id="Vector_18" d="M221.564 279.39L211.498 300.157L251.298 325.766C254.13 327.604 257.385 328.687 260.753 328.913C264.122 329.138 267.492 328.499 270.544 327.055V327.055C274.254 325.279 277.287 322.346 279.184 318.697C281.082 315.048 281.742 310.881 281.065 306.824L268.151 233.103C267.284 227.944 264.473 223.314 260.296 220.164C256.118 217.014 250.893 215.584 245.694 216.169V216.169C243.162 216.446 240.709 217.219 238.475 218.443C236.242 219.668 234.271 221.321 232.676 223.307C231.081 225.293 229.893 227.574 229.18 230.019C228.467 232.465 228.242 235.026 228.519 237.558C228.541 237.758 228.566 237.958 228.594 238.157C228.692 238.866 228.828 239.568 229.001 240.262L243.099 292.691L221.564 279.39Z" fill="#8E44FF"/>
</g>
</svg>
