<svg width="419" height="621" viewBox="0 0 419 621" fill="none" xmlns="http://www.w3.org/2000/svg">
<g id="male">
<path id="Vector" d="M143.376 375.358C102.466 358.177 69.6722 326.01 51.7065 285.443C41.6548 262.462 36.7473 237.542 33.9532 212.616C31.2118 188.161 30.6521 162.365 41.1777 140.122C46.9406 127.943 55.7607 117.464 66.7783 109.708C77.796 101.951 90.6354 97.1802 104.045 95.8607C117.455 94.5411 130.979 96.7177 143.297 102.178C155.616 107.639 166.309 116.197 174.336 127.019C181.245 136.333 186.102 147.51 186.226 159.106C186.486 183.43 166.926 202.95 158.345 225.711C149.477 249.233 152.673 275.295 154.181 300.387C155.688 325.479 154.733 352.681 139.506 372.683" fill="#F2F2F2"/>
<path id="Vector_2" d="M209.152 418.259C93.8251 418.259 0 324.444 0 209.129C0 93.8148 93.8251 -4.76837e-07 209.152 -4.76837e-07C324.479 -4.76837e-07 418.305 93.8148 418.305 209.129C418.305 324.444 324.479 418.259 209.152 418.259ZM209.152 2.5349C95.2233 2.5349 2.53518 95.2129 2.53518 209.129C2.53518 323.046 95.2233 415.724 209.152 415.724C323.081 415.724 415.769 323.046 415.769 209.129C415.769 95.2129 323.081 2.5349 209.152 2.5349V2.5349Z" fill="#3F3D56"/>
<path id="Vector_3" d="M192.89 210.305L174.421 246.172L192.657 256.625C192.657 256.625 205.168 216.337 205.536 214.808C207.423 214.037 209.031 212.712 210.147 211.007C211.264 209.303 211.837 207.3 211.79 205.263C211.743 203.225 211.079 201.25 209.886 199.599C208.692 197.947 207.025 196.697 205.105 196.014C203.185 195.33 201.103 195.245 199.134 195.771C197.165 196.296 195.402 197.407 194.078 198.956C192.754 200.505 191.932 202.419 191.72 204.446C191.508 206.472 191.916 208.516 192.89 210.305V210.305Z" fill="#A0616A"/>
<path id="Vector_4" d="M98.1056 215.184C106.344 245.705 135.957 265.089 160.548 288.329C163.576 289.392 166.792 289.811 169.991 289.559C173.191 289.308 176.302 288.392 179.127 286.87C181.952 285.348 184.428 283.253 186.398 280.719C188.367 278.186 189.785 275.269 190.563 272.156L198.851 239.725L177.786 239.162L169.068 248.635L140.861 228.537L98.1056 215.184Z" fill="#3F3D56"/>
<path id="Vector_5" d="M139.961 589.385L152.728 595.143L181.018 548.645L162.175 540.145L139.961 589.385Z" fill="#A0616A"/>
<path id="Vector_6" d="M133.503 602.498L172.762 620.207L172.986 619.71C174.814 615.658 174.958 611.046 173.385 606.888C171.812 602.73 168.652 599.367 164.6 597.538L164.599 597.538L159.882 588.863L144.047 588.268L140.62 586.722L133.503 602.498Z" fill="#2F2E41"/>
<path id="Vector_7" d="M298.085 526.15L311.568 522.366L303.385 468.557L283.482 474.144L298.085 526.15Z" fill="#A0616A"/>
<path id="Vector_8" d="M301.559 540.349L343.025 528.71L342.878 528.185C341.676 523.905 338.823 520.278 334.947 518.101C331.071 515.924 326.488 515.376 322.208 516.577L322.207 516.577L313.019 512.957L300.5 522.67L296.88 523.687L301.559 540.349Z" fill="#2F2E41"/>
<path id="Vector_9" d="M94.0024 368.925C94.3472 378.9 115.564 405.812 126.722 409.67C128.619 410.327 129.727 410.688 129.727 410.688L133.611 409.514L180.642 395.286C188.878 400.13 213.444 402.593 233.602 403.825C249.645 404.802 258.588 413.189 258.588 413.189C263.321 449.182 276.967 475.422 292.703 507.671L311.587 504.387L293.747 384.261C293.361 381.667 292.222 379.243 290.471 377.291C288.719 375.339 286.433 373.944 283.895 373.28L155.558 339.714C155.558 339.714 148.481 338.433 133.554 345.633C108.979 357.488 93.7561 361.667 94.0024 368.925Z" fill="#2F2E41"/>
<path id="Vector_10" d="M118.525 366.995C114.221 376 120.599 409.67 128.712 418.247L130.865 419.712L131.593 420.091C136.46 436.55 188.682 484.689 188.682 484.689C171.042 507.158 155.322 534.57 148.308 565.283L168.705 572.735L226.119 487.032C227.623 484.787 228.412 482.14 228.383 479.438C228.353 476.737 227.506 474.107 225.954 471.896L202.531 438.535L164.364 364.614C137.092 363.773 121.661 360.445 118.525 366.995Z" fill="#2F2E41"/>
<path id="Vector_11" d="M94.7698 372.846C94.7066 372.846 93.2117 368.933 93.1813 368.925C92.673 368.783 85.7916 368.104 87.3392 356.712L89.3191 344.175L87.3862 333.105L84.1349 329.854L89.3603 324.63L86.158 300.934L84.9285 253.49C81.8427 237.193 82.6486 222.288 97.5969 215.111L114.734 199.217L134.235 198.981L156.359 212.095L167.078 233.462L171.236 291.369L174.34 298.612L174.074 298.852C174.054 298.871 171.985 300.741 171.056 301.769C170.606 302.408 171.451 307.181 172.493 311.233L173.83 321.235L170.461 323.643L174.842 328.817L186.784 349L186.068 348.823C185.262 348.622 177.752 359.894 95.3217 372.428C94.9413 372.486 94.928 372.846 94.7698 372.846Z" fill="#3F3D56"/>
<path id="Vector_12" d="M189.158 247.523L182.334 243.963C181.263 243.403 180.459 242.441 180.096 241.288C179.734 240.136 179.844 238.886 180.402 237.815L196.74 206.508C197.3 205.437 198.262 204.633 199.415 204.271C200.567 203.908 201.817 204.018 202.889 204.576L209.712 208.136C210.783 208.696 211.588 209.658 211.95 210.811C212.312 211.963 212.202 213.213 211.645 214.284L195.307 245.591C194.747 246.662 193.785 247.466 192.632 247.828C191.479 248.191 190.23 248.081 189.158 247.523Z" fill="#3F3D56"/>
<path id="Vector_13" d="M201.257 205.756C200.679 205.456 200.006 205.396 199.385 205.592C198.764 205.787 198.245 206.22 197.943 206.797L181.605 238.104C181.305 238.682 181.246 239.355 181.441 239.976C181.636 240.597 182.07 241.115 182.647 241.417L189.471 244.978C190.048 245.278 190.721 245.337 191.343 245.142C191.964 244.947 192.482 244.513 192.784 243.936L209.122 212.63C209.422 212.052 209.482 211.379 209.286 210.758C209.091 210.137 208.658 209.618 208.081 209.316L201.257 205.756Z" fill="#8E44FF"/>
<path id="Vector_14" d="M128.879 194.707C144.277 194.707 156.76 182.225 156.76 166.828C156.76 151.432 144.277 138.95 128.879 138.95C113.48 138.95 100.997 151.432 100.997 166.828C100.997 182.225 113.48 194.707 128.879 194.707Z" fill="#A0616A"/>
<path id="Vector_15" d="M115.166 184.784C113.943 183.812 112.418 183.3 110.857 183.338C110.373 183.417 109.911 183.599 109.502 183.87C109.093 184.142 108.746 184.497 108.485 184.913C108.34 185.095 108.151 185.239 107.936 185.33C107.722 185.422 107.488 185.458 107.255 185.436C104.28 185.544 97.939 180.026 97.5054 169.378C97.2993 164.317 94.2712 155.754 99.0918 151.116C99.4149 149.245 103.179 129.9 120.147 129.367C137.519 128.815 149.083 132.304 151.861 138.924C153.79 144.18 155.257 149.594 156.244 155.105L156.826 158.382L155.465 155.345C155.44 155.288 152.957 149.85 148.353 148.037C148.279 148.922 148.054 149.787 147.688 150.597C146.186 153.852 142.399 155.976 138.041 156.009C135.029 155.916 132.06 155.277 129.276 154.124C129.591 154.579 129.768 155.115 129.785 155.668C129.803 156.221 129.66 156.768 129.374 157.241C129.088 157.715 128.671 158.096 128.173 158.338C127.676 158.58 127.119 158.673 126.569 158.606L125.764 158.505C125.51 158.474 125.253 158.532 125.037 158.67C124.822 158.808 124.661 159.017 124.584 159.261C124.506 159.504 124.517 159.768 124.613 160.005C124.709 160.242 124.886 160.438 125.111 160.558L125.821 160.937L124.96 161.354C121.493 162.9 118.637 165.551 116.838 168.893C115.039 172.234 114.397 176.078 115.015 179.822L116.019 185.469L115.166 184.784Z" fill="#2F2E41"/>
<path id="Vector_16" d="M189.078 239.984L162.421 270.266L177.559 284.849C177.559 284.849 199.514 248.826 200.244 247.433C202.262 247.145 204.144 246.252 205.643 244.871C207.141 243.49 208.185 241.687 208.637 239.7C209.088 237.713 208.926 235.636 208.17 233.743C207.415 231.85 206.104 230.232 204.408 229.101C202.713 227.97 200.715 227.38 198.677 227.41C196.639 227.439 194.659 228.087 192.997 229.266C191.335 230.446 190.071 232.102 189.371 234.016C188.671 235.929 188.569 238.01 189.078 239.984V239.984Z" fill="#A0616A"/>
<path id="Vector_17" d="M95.9632 221.611C96.5122 253.219 120.506 279.237 138.688 307.77C141.366 309.539 144.383 310.729 147.547 311.265C150.711 311.801 153.952 311.671 157.063 310.884C160.174 310.096 163.086 308.668 165.613 306.691C168.141 304.714 170.228 302.231 171.741 299.401L187.686 269.969L167.394 264.288L156.629 271.35L134.173 244.983L95.9632 221.611Z" fill="#3F3D56"/>
</g>
</svg>
