<svg width="419" height="554" viewBox="0 0 419 554" fill="none" xmlns="http://www.w3.org/2000/svg">
<g id="male">
<path id="Vector" d="M143.376 375.358C102.466 358.177 69.6722 326.01 51.7065 285.443C41.6548 262.462 36.7473 237.542 33.9532 212.616C31.2118 188.161 30.6521 162.365 41.1777 140.122C46.9406 127.943 55.7607 117.464 66.7783 109.708C77.796 101.951 90.6354 97.1802 104.045 95.8607C117.455 94.5411 130.979 96.7177 143.297 102.178C155.616 107.639 166.309 116.197 174.336 127.019C181.245 136.333 186.102 147.51 186.226 159.106C186.486 183.43 166.926 202.95 158.345 225.711C149.477 249.233 152.673 275.295 154.181 300.387C155.688 325.479 154.733 352.681 139.506 372.683" fill="#F2F2F2"/>
<path id="Vector_2" d="M209.152 418.259C93.8251 418.259 0 324.444 0 209.129C0 93.8148 93.8251 -4.76837e-07 209.152 -4.76837e-07C324.479 -4.76837e-07 418.305 93.8148 418.305 209.129C418.305 324.444 324.479 418.259 209.152 418.259ZM209.152 2.5349C95.2233 2.5349 2.53518 95.2129 2.53518 209.129C2.53518 323.046 95.2233 415.724 209.152 415.724C323.081 415.724 415.769 323.046 415.769 209.129C415.769 95.2129 323.081 2.5349 209.152 2.5349V2.5349Z" fill="#3F3D56"/>
<path id="Vector_3" d="M190.89 201.305L172.421 237.172L190.657 247.625C190.657 247.625 203.168 207.337 203.536 205.808C205.423 205.037 207.031 203.712 208.147 202.007C209.264 200.303 209.837 198.3 209.79 196.263C209.743 194.225 209.079 192.25 207.886 190.599C206.692 188.947 205.025 187.697 203.105 187.014C201.185 186.33 199.103 186.245 197.134 186.771C195.165 187.296 193.402 188.407 192.078 189.956C190.754 191.505 189.932 193.419 189.72 195.446C189.508 197.472 189.916 199.516 190.89 201.305V201.305Z" fill="#A0616A"/>
<path id="Vector_4" d="M96.1056 206.184C104.344 236.705 133.957 256.089 158.548 279.329C161.576 280.392 164.792 280.811 167.991 280.559C171.191 280.308 174.302 279.392 177.127 277.87C179.952 276.348 182.428 274.253 184.398 271.719C186.367 269.186 187.785 266.269 188.563 263.156L196.851 230.725L175.786 230.162L167.068 239.635L138.861 219.537L96.1056 206.184Z" fill="#3F3D56"/>
<path id="Vector_5" d="M228.057 535.007L241.662 531.684L235.327 477.626L215.246 482.529L228.057 535.007Z" fill="#A0616A"/>
<path id="Vector_6" d="M214.92 534.399L253.592 553.356L253.832 552.867C255.789 548.875 256.08 544.27 254.641 540.063C253.202 535.857 250.151 532.395 246.159 530.438L246.158 530.437L241.722 521.616L225.914 520.514L222.538 518.859L214.92 534.399Z" fill="#2F2E41"/>
<path id="Vector_7" d="M296.085 517.15L309.568 513.366L301.385 459.557L281.482 465.144L296.085 517.15Z" fill="#A0616A"/>
<path id="Vector_8" d="M299.559 531.349L341.025 519.71L340.878 519.185C339.676 514.905 336.823 511.278 332.947 509.101C329.071 506.924 324.488 506.376 320.208 507.577L320.207 507.577L311.019 503.957L298.5 513.67L294.88 514.687L299.559 531.349Z" fill="#2F2E41"/>
<path id="Vector_9" d="M92.0024 359.925C92.3472 369.9 113.564 396.812 124.722 400.67C126.619 401.327 127.727 401.688 127.727 401.688L131.611 400.514L178.642 386.286C186.878 391.13 211.444 393.593 231.602 394.825C247.645 395.802 256.588 404.189 256.588 404.189C261.321 440.182 274.967 466.422 290.703 498.671L309.587 495.387L291.747 375.261C291.361 372.667 290.222 370.243 288.471 368.291C286.719 366.339 284.433 364.944 281.895 364.28L153.558 330.714C153.558 330.714 146.481 329.433 131.554 336.633C106.979 348.488 91.7561 352.667 92.0024 359.925Z" fill="#2F2E41"/>
<path id="Vector_10" d="M87.7566 362.971C89.1282 372.858 113.006 397.437 124.503 400.123L127.107 400.159L127.923 400.074C141.055 411.126 211.161 422.513 211.161 422.513C208.825 450.984 210.815 482.521 221.889 512.014L243.015 506.991L243.691 403.836C243.709 401.134 242.908 398.49 241.395 396.252C239.881 394.014 237.725 392.287 235.211 391.297L197.28 376.369L124.694 335.721C101.473 350.05 86.7632 355.778 87.7566 362.971Z" fill="#2F2E41"/>
<path id="Vector_11" d="M92.7698 363.846C92.7066 363.846 91.2117 359.933 91.1813 359.925C90.673 359.783 83.7916 359.104 85.3392 347.712L87.3191 335.175L85.3862 324.105L82.1349 320.854L87.3603 315.63L84.158 291.934L82.9285 244.49C79.8427 228.193 80.6486 213.288 95.5969 206.111L112.734 190.217L132.235 189.981L154.359 203.095L165.078 224.462L169.236 282.369L172.34 289.612L172.074 289.852C172.054 289.871 169.985 291.741 169.056 292.769C168.606 293.408 169.451 298.181 170.493 302.233L171.83 312.235L168.461 314.643L172.842 319.817L184.784 340L184.068 339.823C183.262 339.622 175.752 350.894 93.3217 363.428C92.9413 363.486 92.928 363.846 92.7698 363.846Z" fill="#3F3D56"/>
<path id="Vector_12" d="M187.158 238.523L180.334 234.963C179.263 234.403 178.459 233.441 178.096 232.288C177.734 231.136 177.844 229.886 178.402 228.815L194.74 197.508C195.3 196.437 196.262 195.633 197.415 195.271C198.567 194.908 199.817 195.018 200.889 195.576L207.712 199.136C208.783 199.696 209.588 200.658 209.95 201.811C210.312 202.963 210.202 204.213 209.645 205.284L193.307 236.591C192.747 237.662 191.785 238.466 190.632 238.828C189.479 239.191 188.23 239.081 187.158 238.523Z" fill="#3F3D56"/>
<path id="Vector_13" d="M199.257 196.756C198.679 196.456 198.006 196.396 197.385 196.592C196.764 196.787 196.245 197.22 195.943 197.797L179.605 229.104C179.305 229.682 179.246 230.355 179.441 230.976C179.636 231.597 180.07 232.115 180.647 232.417L187.471 235.978C188.048 236.278 188.721 236.337 189.343 236.142C189.964 235.947 190.482 235.513 190.784 234.936L207.122 203.63C207.422 203.052 207.482 202.379 207.286 201.758C207.091 201.137 206.658 200.618 206.081 200.316L199.257 196.756Z" fill="#8E44FF"/>
<path id="Vector_14" d="M126.879 185.707C142.277 185.707 154.76 173.225 154.76 157.828C154.76 142.432 142.277 129.95 126.879 129.95C111.48 129.95 98.9971 142.432 98.9971 157.828C98.9971 173.225 111.48 185.707 126.879 185.707Z" fill="#A0616A"/>
<path id="Vector_15" d="M113.166 175.784C111.943 174.812 110.418 174.3 108.857 174.338C108.373 174.417 107.911 174.599 107.502 174.87C107.093 175.142 106.746 175.497 106.485 175.913C106.34 176.095 106.151 176.239 105.936 176.33C105.722 176.422 105.488 176.458 105.255 176.436C102.28 176.544 95.939 171.026 95.5054 160.378C95.2993 155.317 92.2712 146.754 97.0918 142.116C97.4149 140.245 101.179 120.9 118.147 120.367C135.519 119.815 147.083 123.304 149.861 129.924C151.79 135.18 153.257 140.594 154.244 146.105L154.826 149.382L153.465 146.345C153.44 146.288 150.957 140.85 146.353 139.037C146.279 139.922 146.054 140.787 145.688 141.597C144.186 144.852 140.399 146.976 136.041 147.009C133.029 146.916 130.06 146.277 127.276 145.124C127.591 145.579 127.768 146.115 127.785 146.668C127.803 147.221 127.66 147.768 127.374 148.241C127.088 148.715 126.671 149.096 126.173 149.338C125.676 149.58 125.119 149.673 124.569 149.606L123.764 149.505C123.51 149.474 123.253 149.532 123.037 149.67C122.822 149.808 122.661 150.017 122.584 150.261C122.506 150.504 122.517 150.768 122.613 151.005C122.709 151.242 122.886 151.438 123.111 151.558L123.821 151.937L122.96 152.354C119.493 153.9 116.637 156.551 114.838 159.893C113.039 163.234 112.397 167.078 113.015 170.822L114.019 176.469L113.166 175.784Z" fill="#2F2E41"/>
<path id="Vector_16" d="M187.078 230.984L160.421 261.266L175.559 275.849C175.559 275.849 197.514 239.826 198.244 238.433C200.262 238.145 202.144 237.252 203.643 235.871C205.141 234.49 206.185 232.687 206.637 230.7C207.088 228.713 206.926 226.636 206.17 224.743C205.415 222.85 204.104 221.232 202.408 220.101C200.713 218.97 198.715 218.38 196.677 218.41C194.639 218.439 192.659 219.087 190.997 220.266C189.335 221.446 188.071 223.102 187.371 225.016C186.671 226.929 186.569 229.01 187.078 230.984V230.984Z" fill="#A0616A"/>
<path id="Vector_17" d="M93.9632 212.611C94.5122 244.219 118.506 270.237 136.688 298.77C139.366 300.539 142.383 301.729 145.547 302.265C148.711 302.801 151.952 302.671 155.063 301.884C158.174 301.096 161.086 299.668 163.613 297.691C166.141 295.714 168.228 293.231 169.741 290.401L185.686 260.969L165.394 255.288L154.629 262.35L132.173 235.983L93.9632 212.611Z" fill="#3F3D56"/>
</g>
</svg>
